# xmcd CD database file
#
# Track frame offsets:
#	150
#	11310
#	26207
#	37397
#	54240
#	67825
#	80165
#	93137
#	110322
#	122102
#	134060
#	147272
#	157420
#	171232
#	182715
#	197567
#	214062
#	231310
#	243405
#	254720
#	267272
#	285342
#	294430
#	304717
#	317130
#
# Disc length: 4387 seconds
#
# Revision: 0
# Processed by: cddbd v1.4PL0 Copyright (c) Steve Scherf et al.
# Submitted via: CDex 1.50
#
DISCID=79112119
DTITLE=Various Artist - Country Ballads CD2
DYEAR=2002
DGENRE=Country
TTITLE0=Johnny Cash_Oh, lonesome me
TTITLE1=Kingston Trio_Tom Dooley
TTITLE2=Johnny Paycheck_Tender years
TTITLE3=Lynn Anderson_Blue Bayou
TTITLE4=Charlie Rich_The most beautiful girl
TTITLE5=Frankie Laine_High noon
TTITLE6=Stonewall jackson_I washed my hands in muddy waters
TTITLE7=Kenny Rogers_Something burning
TTITLE8=Waylon Jennings_Crying
TTITLE9=Jack Greene_There goes my everything
TTITLE10=Ferlin Husky_Country music is here to stay
TTITLE11=Mickey Gilley_Lonely wine
TTITLE12=Dolly Parton_I will always love you
TTITLE13=Ray Price_Crazy arms
TTITLE14=Donna Fargo_you were always there
TTITLE15=Alabama_Mountain music
TTITLE16=Brooks and Dunn_South of Santa Fe
TTITLE17=Willie nelson_I can't find the time
TTITLE18=Kitty Wells_It wasn't God who made honky tonk angels
TTITLE19=David Houston_Mountain of love
TTITLE20=Johnny Bush_You gave me a mountain
TTITLE21=Webb Pierce_Honky tonk song
TTITLE22=George Jones_Walk through this world with me
TTITLE23=Lorrie Morgan_What part of no
TTITLE24=Jerry Lee Lewis_I know what it means
EXTD=YEAR: 2002
EXTT0=
EXTT1=
EXTT2=
EXTT3=
EXTT4=
EXTT5=
EXTT6=
EXTT7=
EXTT8=
EXTT9=
EXTT10=
EXTT11=
EXTT12=
EXTT13=
EXTT14=
EXTT15=
EXTT16=
EXTT17=
EXTT18=
EXTT19=
EXTT20=
EXTT21=
EXTT22=
EXTT23=
EXTT24=
PLAYORDER=
